<svg id="GreenwayLogo" data-name="Greenway Logo" xmlns="http://www.w3.org/2000/svg" xmlns:xlink="http://www.w3.org/1999/xlink"  viewBox="0 0 279 60"><defs><path id="jdf5a" d="M123.02 42.86l-3.05 3.58a9.05 9.05 0 0 0-5.96-2.23 5.84 5.84 0 0 0-4.12 1.45c-1.93 1.85-2.43 4.94-2.43 9.22 0 4.07.7 6.7 2.14 8.15a6.35 6.35 0 0 0 4.5 1.6c1.12.05 2.24-.2 3.24-.7v-6.5h-4.36l-.74-4.7h11.07v13.68a18.44 18.44 0 0 1-9.5 2.56c-4.29 0-7.46-1.4-9.77-4.36-2.1-2.7-3.04-5.74-3.04-10.02 0-6.05 1.97-10.33 5.97-13a11.84 11.84 0 0 1 6.95-2.03 13.57 13.57 0 0 1 9.1 3.3z"/><path id="jdf5b" d="M125.88 48.38l4.94-1.32c.52.92.81 1.95.86 3a9.61 9.61 0 0 1 3.14-2.67c.57-.22 1.19-.33 1.8-.33.72-.02 1.43.13 2.06.46l-1.52 4.85a3.09 3.09 0 0 0-1.6-.41c-1.24 0-2.35.57-3.4 1.77v14.9h-5.5V54.56c0-2.85-.33-4.99-.78-6.18z"/><path id="jdf5c" d="M156.02 66.32a12.07 12.07 0 0 1-7.92 2.92c-6.05 0-9.96-4.28-9.96-10.9 0-3.79.78-6.3 2.64-8.36a8.29 8.29 0 0 1 6.62-2.83c2.43 0 4.74.82 6.1 2.22 1.93 1.98 2.82 4.82 2.82 9.23v1.27h-12.24v.16c0 3.26 1.6 5.1 4.44 5.1a8.27 8.27 0 0 0 5.36-2.1zm-11.86-10.5h6.38v-.24c0-1.57-.16-2.4-.65-3.17a2.67 2.67 0 0 0-2.44-1.23c-2.1 0-3.29 1.64-3.29 4.57z"/><path id="jdf5d" d="M176.61 66.32a12.06 12.06 0 0 1-7.92 2.92c-6.04 0-10-4.28-10-10.9 0-3.79.79-6.3 2.64-8.36a8.3 8.3 0 0 1 6.62-2.83c2.43 0 4.74.82 6.1 2.22 1.93 1.98 2.8 4.82 2.8 9.23v1.27h-12.17v.16c0 3.26 1.6 5.1 4.44 5.1a8.24 8.24 0 0 0 5.35-2.1zm-11.85-10.5h6.37v-.24c0-1.57-.16-2.4-.65-3.17a2.67 2.67 0 0 0-2.44-1.23c-2.1 0-3.29 1.64-3.29 4.57z"/><path id="jdf5e" d="M179.13 48.42l4.9-1.4c.49.8.75 1.7.78 2.63.77-.58 1.58-1.1 2.43-1.56a8.7 8.7 0 0 1 3.79-.9c2.35 0 4.4 1.23 5.06 3.04.32.97.46 1.99.41 3v15.4h-5.43v-13.7c0-2.4-.41-3.1-1.85-3.1-1.13 0-2.56.74-3.83 1.9v14.9h-5.52V53.36c.03-1.68-.22-3.35-.74-4.94z"/><path id="jdf5f" d="M198.53 48l5.47-.61 1.74 8.01c.53 2.44 1.19 6.55 1.19 6.55.34-2.48.85-4.93 1.52-7.35l1.98-7h5.18l1.7 6.88c.94 3.9 1.56 7.45 1.56 7.45.12-.91.57-4.2 1.13-6.88l1.61-7.45h5.68l-6 21.03h-5.09l-1.9-7.24c-.4-1.7-.9-3.71-1.18-5.1-.17-.98-.21-1.27-.34-2.1-.11.92-.28 1.83-.49 2.72-.78 3.5-1.77 7.25-1.81 7.42l-1.07 4.32h-5.15z"/><path id="jdf5g" d="M228.4 50.06c1.06-.71 2.2-1.3 3.42-1.73a14.3 14.3 0 0 1 5.76-1.23c3.54 0 5.96 1.32 6.78 3.66.3.87.38 1.53.38 3.8l-.13 7.06V62c0 2.26.38 3.12 1.98 4.32l-2.92 3.39a5.88 5.88 0 0 1-2.98-2.56c-.38.42-.81.8-1.27 1.13a7.28 7.28 0 0 1-4.25 1.13c-4.68 0-7.24-2.39-7.24-6.58 0-4.95 3.42-7.25 10.13-7.25.41 0 .65 0 1.23.04v-.86c0-2.35-.45-3.13-2.47-3.13-1.77 0-3.82.87-6.1 2.39zm10.82 9.35H239c-3.83 0-5.15.7-5.15 3.2 0 1.65 1.03 2.77 2.43 2.77a3.99 3.99 0 0 0 2.88-1.44z"/><path id="jdf5h" d="M247.26 47.92l5.66-.66 3.66 12.27c.37 1.27 1.13 4.36 1.13 4.36s.41-2.34.66-3.4c.33-1.3.41-1.52.82-2.91l3.17-10h5.8l-7.67 21.4c-1.44 4.07-2.51 5.83-4.03 6.95a11.1 11.1 0 0 1-5.1 1.93l-1.89-3.62c1.2-.3 2.34-.77 3.4-1.4a6.4 6.4 0 0 0 1.56-1.73c.49-.77.89-1.6 1.2-2.47h-1.4l-.87-2.47c-.41-1.28-1.07-3.4-1.13-3.45z"/><path id="jdf5i" d="M370.51 67.62v-4.94h-1.76v-1.01h4.73v1h-1.77v4.95z"/><path id="jdf5j" d="M374.24 67.62v-5.95h1.8l1.08 4.06 1.07-4.06h1.8v5.95h-1.13v-4.68l-1.18 4.68h-1.13l-1.18-4.68v4.68z"/><path id="jdf5k" d="M285.59 68V56.24h-7.6V68h-5.28V41.6h5.28v10.26h7.6V41.6h5.4V68z"/><path id="jdf5l" d="M298.38 59.87v.16c0 3 1.48 4.7 4.1 4.7a7.62 7.62 0 0 0 4.94-1.93l1.98 3.04a11.17 11.17 0 0 1-7.35 2.7c-5.6 0-9.2-3.96-9.2-10.07 0-3.5.72-5.81 2.43-7.71a7.64 7.64 0 0 1 6.12-2.62c2.26 0 4.37.76 5.65 2.05 1.78 1.82 2.58 4.44 2.58 8.48v1.17zm5.96-3.96c0-1.44-.15-2.2-.6-2.93a2.47 2.47 0 0 0-2.27-1.13c-1.94 0-3.04 1.52-3.04 4.22v.08h5.89z"/><path id="jdf5m" d="M324.92 68.97a5.46 5.46 0 0 1-2.74-2.35 9.5 9.5 0 0 1-1.18 1.04 6.72 6.72 0 0 1-3.92 1.06c-4.33 0-6.68-2.2-6.68-6.07 0-4.56 3.15-6.69 9.34-6.69.38 0 .76 0 1.13.04v-.8c0-2.16-.41-2.89-2.26-2.89-1.63 0-3.53.8-5.63 2.2l-2.16-3.63c1-.63 2.05-1.17 3.15-1.6a13.18 13.18 0 0 1 5.32-1.13c3.26 0 5.5 1.21 6.27 3.4.26.8.38 1.4.34 3.49l-.12 6.54c-.03 2.12.12 3.03 1.83 4.33zm-4.33-9.5c-3.54 0-4.76.65-4.76 2.97 0 1.52.95 2.54 2.27 2.54 1.03-.05 2-.53 2.66-1.33l.07-4.18z"/><path id="jdf5n" d="M333.96 68.46c-2.17 0-3.91-1.03-4.53-2.66-.38-.99-.45-1.6-.45-4.37V46.91c.02-1.95-.07-3.9-.27-5.85l5.21-1.17c.24 1.67.33 3.36.27 5.05V60.1c0 3.34.03 3.8.34 4.33.22.36.6.57 1.03.56.19.01.38-.01.56-.07l.88 3.03c-.97.35-2 .53-3.04.5z"/><path id="jdf5o" d="M344.71 68.45c-2.58 0-4.64-1.13-5.24-2.82-.3-.84-.35-1.22-.35-3V52.03h-1.93v-3.5h1.93c-.04-1.53.03-3.06.2-4.58l5.16-1.3c-.19 1.79-.3 3.91-.3 5.89h4.56l-1.3 3.5h-3.26v9.76c0 2.47.45 3.12 2.2 3.12a6.65 6.65 0 0 0 1.83-.38l.64 3.03c-1.3.57-2.71.86-4.14.87z"/><path id="jdf5p" d="M361.72 68V54.93c0-1.94-.57-2.65-1.98-2.65-1.5.12-2.92.75-4.03 1.78V68h-5.16V45.51c.03-1.49-.1-2.98-.38-4.44l5.2-1.22c.26 1.57.37 3.16.34 4.75v3.87c0 .61-.07 1.41-.07 1.64a8.48 8.48 0 0 1 5.51-2.07c2.47 0 4.45 1.07 5.05 2.78.41 1.16.58 2.39.5 3.61V68z"/><path id="jdf5q" d="M105.59 90.25v4.53h-3.08v-13.2h5.36a5.47 5.47 0 0 1 3.73 1.2 4.26 4.26 0 0 1 0 6.28 5.5 5.5 0 0 1-3.73 1.2zm0-2.35h2.26c.56.03 1.11-.18 1.51-.57.36-.37.56-.87.55-1.4a2.02 2.02 0 0 0-.52-1.43c-.4-.4-.96-.6-1.52-.57h-2.26z"/><path id="jdf5r" d="M120.42 93.62c-.29.42-.68.77-1.13 1a3.3 3.3 0 0 1-1.55.35c-.9.05-1.77-.3-2.38-.97-.58-.66-.87-1.67-.87-3.04v-5.99h3.05v6c-.03.44.08.87.31 1.24.22.27.55.42.9.4.3.01.59-.03.86-.13.24-.09.45-.23.62-.4v-7.11h3.07v9.81h-2.69z"/><path id="jdf5s" d="M128.6 82.55v2.44h1.66v2.08h-1.65v4.53c-.03.27.05.54.2.76.15.15.36.23.57.23h.46l.43-.08.22 2.27a8.84 8.84 0 0 1-1.88.21 3.03 3.03 0 0 1-2.3-.8 3.56 3.56 0 0 1-.76-2.6v-4.52h-1.36v-2.1h1.36v-2.42z"/><path id="jdf5t" d="M135.33 82.55v2.44h1.66v2.08h-1.66v4.53c-.02.27.05.54.2.76.16.15.36.23.57.23h.46l.43-.08.22 2.27a8.84 8.84 0 0 1-1.87.21 3.03 3.03 0 0 1-2.3-.8 3.56 3.56 0 0 1-.77-2.6v-4.52h-1.38v-2.1h1.38v-2.42z"/><path id="jdf5u" d="M141.65 80.64h-3.08v2.06h3.08zm0 4.33h-3.08v9.81h3.08z"/><path id="jdf5v" d="M146.34 84.96l.12 1.38c.3-.46.71-.85 1.19-1.13a3.13 3.13 0 0 1 1.58-.4c.85-.05 1.69.29 2.26.93.56.63.8 1.62.8 2.97v6.07h-3.06v-6.1c.04-.42-.08-.85-.35-1.19a1.4 1.4 0 0 0-1.03-.35c-.26 0-.52.05-.75.15-.22.1-.41.25-.57.43v7.06h-3.06v-9.82z"/><path id="jdf5w" d="M153.56 89.9c-.07-1.3.28-2.6 1-3.7a3.25 3.25 0 0 1 2.82-1.4c.49-.02.96.11 1.37.36.41.27.76.63 1.01 1.05l.21-1.24h2.68v9.45a4 4 0 0 1-1.35 3.16 5.31 5.31 0 0 1-3.64 1.19 8.26 8.26 0 0 1-3.18-.77l.5-2.27a6.1 6.1 0 0 0 2.67.57c.52.04 1.05-.15 1.44-.5.34-.38.52-.88.5-1.4v-.49a2.74 2.74 0 0 1-2.23 1.09 3.3 3.3 0 0 1-2.84-1.34 5.82 5.82 0 0 1-1-3.55zm3.05.2a4 4 0 0 0 .38 1.85c.22.42.66.68 1.13.66.3.01.6-.04.86-.15.23-.1.42-.27.57-.47v-4.12a1.57 1.57 0 0 0-1.41-.72c-.5 0-.95.29-1.15.75-.27.63-.4 1.31-.38 2z"/><path id="jdf5x" d="M172.26 90.25v4.53h-3.08v-13.2h5.36a5.46 5.46 0 0 1 3.73 1.2 4.26 4.26 0 0 1 0 6.28 5.49 5.49 0 0 1-3.73 1.2zm0-2.35h2.26a2 2 0 0 0 1.52-.57c.35-.38.54-.89.52-1.4a2.04 2.04 0 0 0-.52-1.45c-.4-.4-.96-.6-1.52-.57h-2.26z"/><path id="jdf5y" d="M180.7 89.79a5.18 5.18 0 0 1 1.24-3.61 5.09 5.09 0 0 1 7 0c.86 1 1.3 2.29 1.25 3.6v.2c.06 1.32-.4 2.6-1.25 3.6a5.09 5.09 0 0 1-7 0c-.86-1-1.3-2.28-1.24-3.6zm3.06.19c-.03.67.1 1.33.38 1.93.27.48.78.75 1.32.7.53.04 1.03-.23 1.28-.7a4 4 0 0 0 .4-1.93v-.2c.02-.65-.11-1.31-.4-1.9a1.37 1.37 0 0 0-1.3-.73 1.34 1.34 0 0 0-1.3.72c-.28.6-.42 1.26-.39 1.92z"/><path id="jdf5z" d="M196.65 92.03a.8.8 0 0 0-.4-.65 4.47 4.47 0 0 0-1.5-.51 5.86 5.86 0 0 1-2.6-1.05 2.34 2.34 0 0 1-.86-1.93c0-.86.4-1.68 1.08-2.2a4.46 4.46 0 0 1 2.95-.9c1.1-.06 2.2.25 3.12.87.75.5 1.18 1.37 1.13 2.27v.05h-2.99a1.2 1.2 0 0 0-.3-.88c-.25-.22-.6-.33-.94-.3-.29 0-.58.09-.8.27-.22.15-.34.4-.33.66 0 .27.14.52.37.66.47.26.99.43 1.52.5.96.13 1.87.5 2.66 1.05.6.5.91 1.23.87 2 0 .87-.44 1.7-1.17 2.18-.92.6-2.01.9-3.11.85a4.67 4.67 0 0 1-3.17-1.01 2.83 2.83 0 0 1-1.13-2.26v-.06h2.77c-.02.38.14.76.43 1 .33.23.73.34 1.13.32.33.02.65-.06.93-.24a.81.81 0 0 0 .34-.7z"/><path id="jdf5A" d="M206.15 92.03a.81.81 0 0 0-.41-.65 4.47 4.47 0 0 0-1.5-.51 5.89 5.89 0 0 1-2.58-1.05 2.36 2.36 0 0 1-.87-1.93c0-.86.4-1.68 1.1-2.2a4.46 4.46 0 0 1 2.94-.9c1.1-.06 2.2.25 3.12.87.75.5 1.18 1.36 1.13 2.27v.05h-2.97a1.2 1.2 0 0 0-.3-.88 1.3 1.3 0 0 0-.95-.3c-.29 0-.57.09-.8.27a.81.81 0 0 0-.33.66c0 .27.15.52.38.66.47.26.98.43 1.52.5.96.13 1.87.5 2.66 1.05.59.5.9 1.23.87 2 0 .88-.44 1.7-1.18 2.18-.93.63-2.04.93-3.16.87a4.67 4.67 0 0 1-3.17-1.01 2.83 2.83 0 0 1-1.13-2.27v-.05h2.84c-.03.38.13.75.42 1 .34.23.73.34 1.13.32.34.02.66-.07.94-.25a.81.81 0 0 0 .3-.7z"/><path id="jdf5B" d="M213.76 80.64h-3.08v2.06h3.08zm0 4.33h-3.08v9.81h3.08z"/><path id="jdf5C" d="M224.73 90.09a5.96 5.96 0 0 1-.97 3.56 3.3 3.3 0 0 1-2.86 1.34 2.71 2.71 0 0 1-2.42-1.35l-.2 1.13h-2.66V80.63h3.07v5.31c.25-.34.57-.63.94-.84.4-.2.83-.3 1.27-.3a3.26 3.26 0 0 1 2.86 1.4c.7 1.1 1.03 2.4.97 3.7zm-3.06-.2a4.98 4.98 0 0 0-.33-2.02c-.21-.47-.7-.76-1.22-.72-.3 0-.59.06-.85.19a1.4 1.4 0 0 0-.57.56V92c.14.2.34.36.57.46.27.11.57.16.87.15.5.06.98-.19 1.21-.62.24-.6.34-1.26.31-1.9z"/><path id="jdf5D" d="M229.28 80.64h-3.07v2.06h3.07zm0 4.33h-3.07v9.81h3.07z"/><path id="jdf5E" d="M234.38 94.78h-3.08V80.64h3.08z"/><path id="jdf5F" d="M239.47 80.64h-3.08v2.06h3.08zm0 4.33h-3.08v9.81h3.08z"/><path id="jdf5G" d="M244.96 82.55v2.44h1.66v2.08h-1.66v4.53c-.02.27.05.54.22.76.15.15.35.24.56.23h.46l.44-.08.21 2.27a8.84 8.84 0 0 1-1.87.21 3.04 3.04 0 0 1-2.3-.8 3.56 3.56 0 0 1-.77-2.6v-4.52h-1.38v-2.1h1.38v-2.42z"/><path id="jdf5H" d="M251.86 90.46v.07h.06l1.62-5.56h3.26l-3.9 11.28a5.48 5.48 0 0 1-1.17 1.79c-.64.52-1.45.78-2.27.7a4.02 4.02 0 0 1-1.44-.23l.37-2.17.19.04h.16a2 2 0 0 0 1.06-.22c.23-.14.4-.36.5-.6l.24-.65-3.39-9.92h3.26z"/><path id="jdf5I" d="M265.46 80.64h-3.08v2.06h3.08zm0 4.33h-3.08v9.81h3.08z"/><path id="jdf5J" d="M270.15 84.97l.12 1.38c.3-.47.7-.85 1.19-1.13a3.13 3.13 0 0 1 1.57-.42c.86-.04 1.7.3 2.27.94.56.63.8 1.62.8 2.97v6.07h-3.06V88.7c.04-.43-.08-.86-.35-1.2a1.4 1.4 0 0 0-1.03-.34c-.5-.02-.99.18-1.32.56v7.07h-3.07v-9.81z"/><path id="jdf5K" d="M281.4 82.55v2.44h1.66v2.08h-1.65v4.53c-.03.27.05.54.21.76.15.15.35.24.57.23h.46l.43-.08.21 2.27a8.84 8.84 0 0 1-1.88.21 3.04 3.04 0 0 1-2.27-.82 3.56 3.56 0 0 1-.8-2.57v-4.53h-1.38v-2.1h1.38v-2.42z"/><path id="jdf5L" d="M283.81 89.8a5.2 5.2 0 0 1 1.25-3.62 5.09 5.09 0 0 1 7 0c.86 1 1.3 2.3 1.25 3.61v.2a5.2 5.2 0 0 1-1.25 3.6 5.09 5.09 0 0 1-7 0 5.2 5.2 0 0 1-1.25-3.6zm3.07.18c-.03.67.1 1.33.38 1.94.27.47.78.74 1.32.7.54.05 1.05-.23 1.3-.7a4 4 0 0 0 .4-1.94v-.19c.03-.66-.1-1.32-.4-1.92a1.53 1.53 0 0 0-2.6 0c-.27.6-.4 1.26-.38 1.92z"/><path id="jdf5M" d="M302.54 90.25v4.53h-3.08v-13.2h5.36a5.47 5.47 0 0 1 3.74 1.2 4.26 4.26 0 0 1 0 6.28 5.5 5.5 0 0 1-3.73 1.2zm0-2.35h2.26c.56.03 1.11-.17 1.51-.57.37-.37.56-.87.55-1.4a2.02 2.02 0 0 0-.52-1.43c-.4-.4-.96-.6-1.52-.57h-2.26z"/><path id="jdf5N" d="M317.04 87.67h-1.13c-.3-.01-.6.05-.86.18-.22.1-.4.28-.5.5v6.43h-3.07v-9.81h2.88l.12 1.44c.16-.46.44-.87.81-1.2.33-.27.75-.41 1.18-.4l.45.03c.15 0 .28.05.4.08z"/><path id="jdf5O" d="M323.82 94.77a3.77 3.77 0 0 1-.4-1.13 2.95 2.95 0 0 1-2.55 1.32 3.2 3.2 0 0 1-2.27-.8 2.78 2.78 0 0 1-.87-2.15 2.6 2.6 0 0 1 1.1-2.26c.72-.53 1.83-.8 3.32-.8h1.13v-.68c.02-.35-.08-.7-.3-.97a1.13 1.13 0 0 0-.9-.33c-.3-.02-.57.07-.79.25-.19.21-.28.5-.26.77h-2.96v-.05c-.05-.9.38-1.76 1.13-2.26.9-.64 2-.96 3.11-.9 1.06-.05 2.1.27 2.95.9.77.64 1.19 1.6 1.13 2.6v3.7a7.35 7.35 0 0 0 .53 2.8zm-2.02-1.99a1.95 1.95 0 0 0 1.46-.62V90.6h-1.13a1.4 1.4 0 0 0-1.06.35c-.22.24-.34.57-.33.9 0 .25.1.5.3.67.2.18.47.28.74.26z"/><path id="jdf5P" d="M332.2 92.62c.35.02.68-.1.93-.34.21-.28.32-.63.3-.99h2.8v.06a3.2 3.2 0 0 1-1.14 2.61 4.24 4.24 0 0 1-2.88 1.03 4.34 4.34 0 0 1-3.44-1.38 5.3 5.3 0 0 1-1.22-3.6v-.22a5.3 5.3 0 0 1 1.2-3.6 4.3 4.3 0 0 1 3.4-1.38 4.2 4.2 0 0 1 2.99 1.04 3.59 3.59 0 0 1 1.07 2.83v.05h-2.77c.02-.4-.09-.8-.3-1.13-.22-.3-.58-.47-.94-.44-.52-.04-1 .25-1.22.72-.26.6-.38 1.25-.35 1.9V90c-.03.66.09 1.32.35 1.93.23.46.72.73 1.23.69z"/><path id="jdf5Q" d="M341.13 82.55v2.44h1.66v2.08h-1.66v4.53c-.02.27.05.54.22.76.15.15.35.24.56.23h.46l.44-.08.21 2.27a8.84 8.84 0 0 1-1.87.21 3.03 3.03 0 0 1-2.3-.8 3.56 3.56 0 0 1-.78-2.6v-4.52h-1.37v-2.1h1.37v-2.42z"/><path id="jdf5R" d="M347.45 80.64h-3.08v2.06h3.08zm0 4.33h-3.08v9.81h3.08z"/><path id="jdf5S" d="M353.5 92.61c.35.03.68-.1.93-.33.21-.28.32-.64.3-1h2.8v.07c.04 1-.37 1.96-1.14 2.6a4.24 4.24 0 0 1-2.88 1.04 4.34 4.34 0 0 1-3.44-1.39 5.3 5.3 0 0 1-1.22-3.6v-.21a5.3 5.3 0 0 1 1.2-3.6 4.3 4.3 0 0 1 3.43-1.38 4.2 4.2 0 0 1 2.99 1.04 3.6 3.6 0 0 1 1.08 2.83v.05h-2.8c.01-.4-.1-.8-.31-1.13-.22-.3-.57-.46-.94-.44-.51-.04-1 .25-1.22.72-.25.6-.37 1.26-.34 1.91v.2c-.03.67.08 1.33.34 1.94.24.46.72.72 1.23.68z"/><path id="jdf5T" d="M363.3 94.99a4.52 4.52 0 0 1-4.76-4.75v-.35a5.53 5.53 0 0 1 1.17-3.66 4.69 4.69 0 0 1 6.49-.21c.79.89 1.2 2.06 1.13 3.25v1.6h-5.61v.06a1.91 1.91 0 0 0 2 1.72 5.77 5.77 0 0 0 2.7-.6l.73 1.86c-.5.35-1.07.62-1.66.78-.72.21-1.46.31-2.2.3zm-.23-7.83c-.39-.02-.76.16-.99.48-.24.37-.38.8-.4 1.25l.02.05h2.64v-.23c.03-.4-.08-.8-.3-1.14-.24-.29-.6-.45-.97-.43z"/></defs><g><g transform="translate(-101 -39)"><g><use fill="#01d856" xlink:href="#jdf5a"/></g><g><use fill="#01d856" xlink:href="#jdf5b"/></g><g><use fill="#01d856" xlink:href="#jdf5c"/></g><g><use fill="#01d856" xlink:href="#jdf5d"/></g><g><use fill="#01d856" xlink:href="#jdf5e"/></g><g><use fill="#01d856" xlink:href="#jdf5f"/></g><g><use fill="#01d856" xlink:href="#jdf5g"/></g><g><use fill="#01d856" xlink:href="#jdf5h"/></g><g><use fill="#3f88f7" xlink:href="#jdf5i"/></g><g><use fill="#3f88f7" xlink:href="#jdf5j"/></g><g><use fill="#3f88f7" xlink:href="#jdf5k"/></g><g><use fill="#3f88f7" xlink:href="#jdf5l"/></g><g><use fill="#3f88f7" xlink:href="#jdf5m"/></g><g><use fill="#3f88f7" xlink:href="#jdf5n"/></g><g><use fill="#3f88f7" xlink:href="#jdf5o"/></g><g><use fill="#3f88f7" xlink:href="#jdf5p"/></g><g><use fill="#3f88f7" xlink:href="#jdf5q"/></g><g><use fill="#3f88f7" xlink:href="#jdf5r"/></g><g><use fill="#3f88f7" xlink:href="#jdf5s"/></g><g><use fill="#3f88f7" xlink:href="#jdf5t"/></g><g><use fill="#3f88f7" xlink:href="#jdf5u"/></g><g><use fill="#3f88f7" xlink:href="#jdf5v"/></g><g><use fill="#3f88f7" xlink:href="#jdf5w"/></g><g><use fill="#3f88f7" xlink:href="#jdf5x"/></g><g><use fill="#3f88f7" xlink:href="#jdf5y"/></g><g><use fill="#3f88f7" xlink:href="#jdf5z"/></g><g><use fill="#3f88f7" xlink:href="#jdf5A"/></g><g><use fill="#3f88f7" xlink:href="#jdf5B"/></g><g><use fill="#3f88f7" xlink:href="#jdf5C"/></g><g><use fill="#3f88f7" xlink:href="#jdf5D"/></g><g><use fill="#3f88f7" xlink:href="#jdf5E"/></g><g><use fill="#3f88f7" xlink:href="#jdf5F"/></g><g><use fill="#3f88f7" xlink:href="#jdf5G"/></g><g><use fill="#3f88f7" xlink:href="#jdf5H"/></g><g><use fill="#3f88f7" xlink:href="#jdf5I"/></g><g><use fill="#3f88f7" xlink:href="#jdf5J"/></g><g><use fill="#3f88f7" xlink:href="#jdf5K"/></g><g><use fill="#3f88f7" xlink:href="#jdf5L"/></g><g><use fill="#3f88f7" xlink:href="#jdf5M"/></g><g><use fill="#3f88f7" xlink:href="#jdf5N"/></g><g><use fill="#3f88f7" xlink:href="#jdf5O"/></g><g><use fill="#3f88f7" xlink:href="#jdf5P"/></g><g><use fill="#3f88f7" xlink:href="#jdf5Q"/></g><g><use fill="#3f88f7" xlink:href="#jdf5R"/></g><g><use fill="#3f88f7" xlink:href="#jdf5S"/></g><g><use fill="#3f88f7" xlink:href="#jdf5T"/></g></g></g></svg>